<?xml version="1.0" encoding="UTF-8"?>
<svg xmlns="http://www.w3.org/2000/svg" viewBox="0 0 594.86 594.85">
  <g fill="currentColor">
    <path d="M594.86,118.97c0,56.09,0,84.11-17.43,101.54-17.43,17.43-45.45,17.43-101.54,17.43s-84.11,0-101.54-17.43-17.43-45.45-17.43-101.54,0-84.11,17.43-101.54C391.77,0,419.79,0,475.89,0s84.11,0,101.54,17.43,17.43,45.45,17.43,101.54Z"></path>
    <path fill-rule="evenodd" d="M551.31,551.31c43.54-43.6,43.54-113.68,43.54-253.88v-33.85c-15.14,9.9-31.8,14.28-47.77,16.39-19.18,2.59-42.8,2.59-68.56,2.59h-5.32c-25.73,0-49.34,0-68.53-2.59-21.15-2.83-43.51-9.52-61.87-27.9-18.41-18.38-25.1-40.75-27.96-61.87-2.56-19.21-2.56-42.83-2.56-68.56v-5.35c0-25.73,0-49.34,2.59-68.53,2.14-15.97,6.48-32.63,16.36-47.74l-33.8-.02C157.22,0,87.12,0,43.54,43.54,0,87.15,0,157.25,0,297.43s0,210.31,43.54,253.88c43.6,43.54,113.71,43.54,253.88,43.54s210.31,0,253.88-43.54h0ZM185.89,275.12c-12.32,0-22.31,9.99-22.31,22.31s9.99,22.31,22.31,22.31h57.7l-110.64,110.64c-8.4,9.01-7.9,23.13,1.11,31.53,8.57,7.98,21.85,7.98,30.41,0l110.64-110.64v57.7c0,12.32,9.99,22.31,22.31,22.31s22.31-9.99,22.31-22.31v-111.54c0-12.31-9.99-22.31-22.31-22.31h-111.54.01Z"></path>
  </g>
</svg>