<?xml version="1.0" encoding="UTF-8"?>
<svg xmlns="http://www.w3.org/2000/svg" viewBox="0 0 2629.4 651.2">
  <g fill="currentColor">
    <polygon fill-rule="evenodd" points="1091.8 122.8 1016.8 122.8 1016.8 506.3 1260.6 506.3 1260.6 437.8 1091.8 437.8 1091.8 122.8"></polygon>
    <rect x="1278.1" y="122.8" width="75.1" height="383.6"></rect>
    <path fill-rule="evenodd" d="M1651.5,411c-10.1,10.6-21.6,18.9-34.5,24.9-13,6-27.3,9-43,9-22.7,0-42.7-5.6-60.3-16.7-17.5-11.1-31.2-26.5-41.1-46-9.9-19.5-14.8-42.1-14.8-67.7s4.8-48,14.5-67.4c9.7-19.4,23.2-34.6,40.5-45.8,17.3-11.1,37.2-16.7,59.5-16.7s29.6,2.8,42.7,8.5c13.2,5.7,24.8,13.5,35.1,23.6,10.2,10.1,18.4,21.8,24.7,35.3l69.6-25.8c-9.1-21.5-22.2-40.6-39.2-57.3-17-16.6-36.8-29.6-59.5-38.9-22.7-9.3-47.1-14-73.4-14-37.3,0-70.2,8.5-98.9,25.5-28.7,17-51.2,40.4-67.7,70.1-16.4,29.8-24.7,64-24.7,102.7s8.2,73,24.7,102.7c16.4,29.8,39.1,53.2,67.9,70.1,28.9,17,61.9,25.5,99.2,25.5s51.3-4.8,74-14.2c22.6-9.5,42.5-22.8,59.5-40,17-17.2,30-36.9,39.2-59.2l-69.6-25.2c-6.2,13.9-14.3,26.1-24.4,36.7Z"></path>
    <rect x="1768" y="122.8" width="75.1" height="383.6"></rect>
    <polygon fill-rule="evenodd" points="2157.6 122.8 1852.9 122.8 1852.9 191.3 1968 191.3 1968 506.3 2043 506.3 2043 191.3 2157.6 191.3 2157.6 122.8"></polygon>
    <path fill-rule="evenodd" d="M2326.3,122.8h-75.1l-151.2,383.6h79.5l32.3-84.4h158.9l32.3,84.4h79.5l-151.2-383.6h-4.9ZM2237.2,355.7l54.1-141.3,54.1,141.3h-108.2Z"></path>
    <rect x="2495.7" y="122.8" width="75.1" height="383.6"></rect>
    <polygon fill-rule="evenodd" points="2631 25.2 2549.9 25.2 2488 97 2560.3 97 2631 25.2"></polygon>
    <path fill-rule="evenodd" d="M521,0c-61.4,0-92.1,0-111.2,19.1s-19.1,49.8-19.1,111.2,0,92.1,19.1,111.2c19.1,19.1,49.8,19.1,111.2,19.1s92.1,0,111.2-19.1,19.1-49.8,19.1-111.2,0-92.1-19.1-111.2C613,0,582.4,0,521,0Z"></path>
    <path fill-rule="evenodd" d="M523.9,309.3h-5.8c-28.2,0-54,0-75-2.8-23.2-3.1-47.6-10.4-67.7-30.5-20.1-20.1-27.5-44.6-30.6-67.7-2.8-21-2.8-46.9-2.8-75v-5.9c0-28.2,0-54,2.8-75,2.3-17.5,7.1-35.7,17.9-52.3h-37c-153.5,0-230.2,0-277.9,47.6C0,95.4,0,172.2,0,325.6s0,230.2,47.7,277.9c47.7,47.7,124.5,47.7,277.9,47.7s230.2,0,277.9-47.7h0c47.7-47.7,47.7-124.4,47.7-277.9v-37c-16.6,10.8-34.8,15.6-52.3,17.9-21,2.8-46.8,2.8-75,2.8ZM350,447.7c0,13.5-10.9,24.4-24.4,24.4s-24.4-10.9-24.4-24.4v-63.2l-121.1,121.1c-9.4,8.7-23.9,8.7-33.3,0-9.9-9.2-10.4-24.6-1.2-34.5l121.1-121.1h-63.2c-13.5,0-24.4-10.9-24.4-24.4s10.9-24.4,24.4-24.4h122.1c13.5,0,24.4,10.9,24.4,24.4v122.1Z"></path>
  </g>
</svg>