<?xml version="1.0" encoding="UTF-8"?>
<svg id="Layer_1" xmlns="http://www.w3.org/2000/svg" viewBox="0 0 2629.35 651.2">
  <defs>
    
  </defs>
  <text class="cls-3" transform="translate(975.12 506.34)"><tspan class="cls-6" x="0" y="0">LICI</tspan><tspan class="cls-5" x="870.12" y="0">T</tspan><tspan class="cls-4" x="1120.54" y="0">AÍ</tspan></text>
  <g>
    <path class="cls-1" d="M651.2,130.24c0,61.41,0,92.08-19.08,111.16-19.08,19.08-49.75,19.08-111.16,19.08-61.41,0-92.08,0-111.16-19.08-19.08-19.08-19.08-49.75-19.08-111.16,0-61.41,0-92.08,19.08-111.16C428.88,0,459.55,0,520.96,0c61.41,0,92.08,0,111.16,19.08,19.08,19.08,19.08,49.75,19.08,111.16Z"></path>
    <path class="cls-2" d="M603.53,603.53c47.67-47.73,47.67-124.44,47.67-277.93v-37.05c-16.57,10.84-34.81,15.63-52.29,17.94-21,2.83-46.85,2.83-75.05,2.83h-5.83c-28.16,0-54.02,0-75.02-2.83-23.15-3.09-47.64-10.42-67.72-30.54-20.15-20.12-27.48-44.61-30.61-67.72-2.8-21.03-2.8-46.89-2.8-75.05v-5.86c0-28.16,0-54.02,2.83-75.02,2.34-17.48,7.1-35.72,17.91-52.26L325.6,0C172.11,0,95.37,0,47.67,47.67,0,95.4,0,172.15,0,325.6c0,153.49,0,230.23,47.67,277.93,47.73,47.67,124.48,47.67,277.93,47.67,153.49,0,230.23,0,277.93-47.67ZM203.5,301.18c-13.49,0-24.42,10.93-24.42,24.42s10.93,24.42,24.42,24.42h63.17s-121.12,121.12-121.12,121.12c-9.19,9.87-8.65,25.32,1.22,34.51,9.38,8.74,23.92,8.74,33.3,0l121.12-121.12v63.17c0,13.49,10.93,24.42,24.42,24.42,13.49,0,24.42-10.93,24.42-24.42v-122.1c0-13.48-10.94-24.42-24.42-24.42h-122.1Z"></path>
  </g>
</svg>